HIERARCHY
ROOT Hips
{
	OFFSET 0.000000 100.481300 0.000000
	CHANNELS 6 Xposition Yposition Zposition Xrotation Yrotation Zrotation
	JOINT Spine
	{
		OFFSET -0.279200 12.230698 -2.892100
		CHANNELS 3 Xrotation Yrotation Zrotation
		JOINT Spine1
		{
			OFFSET -0.325700 14.269203 -3.374200
			CHANNELS 3 Xrotation Yrotation Zrotation
			JOINT Spine2
			{
				OFFSET -0.372300 16.307602 -0.352600
				CHANNELS 3 Xrotation Yrotation Zrotation
				JOINT Neck
				{
					OFFSET -0.418800 17.814194 8.416900
					CHANNELS 3 Xrotation Yrotation Zrotation
					JOINT Head
					{
						OFFSET 0.000000 7.031097 3.806800
						CHANNELS 3 Xrotation Yrotation Zrotation
						JOINT HeadTop_End
						{
							OFFSET 0.000000 24.646606 12.978600
							CHANNELS 3 Xrotation Yrotation Zrotation
							End Site
							{
								OFFSET 0.000000 27.854965 0.000000
							}
						}
					}
				}
				JOINT LeftShoulder
				{
					OFFSET 16.952999 14.495407 -7.737500
					CHANNELS 3 Xrotation Yrotation Zrotation
					JOINT LeftArm
					{
						OFFSET 9.308998 -2.777710 0.208600
						CHANNELS 3 Xrotation Yrotation Zrotation
						JOINT LeftForeArm
						{
							OFFSET 29.972298 0.000000 0.000000
							CHANNELS 3 Xrotation Yrotation Zrotation
							JOINT LeftHand
							{
								OFFSET 26.026505 0.000000 0.000000
								CHANNELS 3 Xrotation Yrotation Zrotation
								JOINT LeftHandThumb1
								{
									OFFSET 12.240501 -7.147949 9.207150
									CHANNELS 3 Xrotation Yrotation Zrotation
									JOINT LeftHandThumb2
									{
										OFFSET 4.138618 -2.389435 2.389433
										CHANNELS 3 Xrotation Yrotation Zrotation
										JOINT LeftHandThumb3
										{
											OFFSET 2.726913 -1.574387 1.574386
											CHANNELS 3 Xrotation Yrotation Zrotation
											JOINT LeftHandThumb4
											{
												OFFSET 3.941010 -2.275345 2.275342
												CHANNELS 3 Xrotation Yrotation Zrotation
												End Site
												{
													OFFSET -0.005798 5.087799 0.009903
												}
											}
										}
									}
								}
								JOINT LeftHandIndex1
								{
									OFFSET 24.424698 -1.985611 5.953459
									CHANNELS 3 Xrotation Yrotation Zrotation
									JOINT LeftHandIndex2
									{
										OFFSET 6.426697 0.000000 0.000000
										CHANNELS 3 Xrotation Yrotation Zrotation
										JOINT LeftHandIndex3
										{
											OFFSET 5.337898 0.000000 0.000000
											CHANNELS 3 Xrotation Yrotation Zrotation
											JOINT LeftHandIndex4
											{
												OFFSET 4.409401 0.000000 0.000000
												CHANNELS 3 Xrotation Yrotation Zrotation
												End Site
												{
													OFFSET 0.000000 4.409363 0.014373
												}
											}
										}
									}
								}
								JOINT LeftHandMiddle1
								{
									OFFSET 23.810104 0.000000 0.000000
									CHANNELS 3 Xrotation Yrotation Zrotation
									JOINT LeftHandMiddle2
									{
										OFFSET 7.176498 0.000000 0.000000
										CHANNELS 3 Xrotation Yrotation Zrotation
										JOINT LeftHandMiddle3
										{
											OFFSET 6.774902 0.000000 0.000000
											CHANNELS 3 Xrotation Yrotation Zrotation
											JOINT LeftHandMiddle4
											{
												OFFSET 5.403328 0.000000 0.000000
												CHANNELS 3 Xrotation Yrotation Zrotation
												End Site
												{
													OFFSET -0.027702 5.403244 0.017414
												}
											}
										}
									}
								}
								JOINT LeftHandRing1
								{
									OFFSET 22.908401 -0.839279 -6.020567
									CHANNELS 3 Xrotation Yrotation Zrotation
									JOINT LeftHandRing2
									{
										OFFSET 6.337502 0.000000 0.000000
										CHANNELS 3 Xrotation Yrotation Zrotation
										JOINT LeftHandRing3
										{
											OFFSET 5.779297 0.000000 0.000000
											CHANNELS 3 Xrotation Yrotation Zrotation
											JOINT LeftHandRing4
											{
												OFFSET 4.965698 0.000000 0.000000
												CHANNELS 3 Xrotation Yrotation Zrotation
												End Site
												{
													OFFSET 0.000000 4.965668 0.016186
												}
											}
										}
									}
								}
								JOINT LeftHandPinky1
								{
									OFFSET 20.037003 -1.530319 -10.950146
									CHANNELS 3 Xrotation Yrotation Zrotation
									JOINT LeftHandPinky2
									{
										OFFSET 5.254700 0.000000 0.000000
										CHANNELS 3 Xrotation Yrotation Zrotation
										JOINT LeftHandPinky3
										{
											OFFSET 4.810204 0.000000 0.000000
											CHANNELS 3 Xrotation Yrotation Zrotation
											JOINT LeftHandPinky4
											{
												OFFSET 3.647202 0.000000 0.000000
												CHANNELS 3 Xrotation Yrotation Zrotation
												End Site
												{
													OFFSET 0.000000 3.647186 0.011889
												}
											}
										}
									}
								}
							}
						}
					}
				}
				JOINT RightShoulder
				{
					OFFSET -15.141001 14.495407 -7.737500
					CHANNELS 3 Xrotation Yrotation Zrotation
					JOINT RightArm
					{
						OFFSET -9.308998 -2.777710 0.208500
						CHANNELS 3 Xrotation Yrotation Zrotation
						JOINT RightForeArm
						{
							OFFSET -29.972300 0.000000 0.000000
							CHANNELS 3 Xrotation Yrotation Zrotation
							JOINT RightHand
							{
								OFFSET -26.026505 0.000000 0.000000
								CHANNELS 3 Xrotation Yrotation Zrotation
								JOINT RightHandThumb1
								{
									OFFSET -12.240601 -7.148026 9.207092
									CHANNELS 3 Xrotation Yrotation Zrotation
									JOINT RightHandThumb2
									{
										OFFSET -4.138618 -2.389435 2.389433
										CHANNELS 3 Xrotation Yrotation Zrotation
										JOINT RightHandThumb3
										{
											OFFSET -2.726974 -1.574417 1.574421
											CHANNELS 3 Xrotation Yrotation Zrotation
											JOINT RightHandThumb4
											{
												OFFSET -3.941010 -2.275345 2.275343
												CHANNELS 3 Xrotation Yrotation Zrotation
												End Site
												{
													OFFSET 0.005814 5.087799 0.009927
												}
											}
										}
									}
								}
								JOINT RightHandIndex1
								{
									OFFSET -24.424698 -1.985657 5.953444
									CHANNELS 3 Xrotation Yrotation Zrotation
									JOINT RightHandIndex2
									{
										OFFSET -6.426697 0.000000 0.000000
										CHANNELS 3 Xrotation Yrotation Zrotation
										JOINT RightHandIndex3
										{
											OFFSET -5.337898 0.000000 0.000000
											CHANNELS 3 Xrotation Yrotation Zrotation
											JOINT RightHandIndex4
											{
												OFFSET -4.409401 0.000000 0.000000
												CHANNELS 3 Xrotation Yrotation Zrotation
												End Site
												{
													OFFSET 0.000000 4.409363 0.014408
												}
											}
										}
									}
								}
								JOINT RightHandMiddle1
								{
									OFFSET -23.810097 0.000000 0.000000
									CHANNELS 3 Xrotation Yrotation Zrotation
									JOINT RightHandMiddle2
									{
										OFFSET -7.176498 0.000000 0.000000
										CHANNELS 3 Xrotation Yrotation Zrotation
										JOINT RightHandMiddle3
										{
											OFFSET -6.774902 0.000000 0.000000
											CHANNELS 3 Xrotation Yrotation Zrotation
											JOINT RightHandMiddle4
											{
												OFFSET -5.403328 0.000000 0.000000
												CHANNELS 3 Xrotation Yrotation Zrotation
												End Site
												{
													OFFSET 0.027702 5.403244 0.017457
												}
											}
										}
									}
								}
								JOINT RightHandRing1
								{
									OFFSET -22.908302 -0.839325 -6.020576
									CHANNELS 3 Xrotation Yrotation Zrotation
									JOINT RightHandRing2
									{
										OFFSET -6.337502 0.000000 0.000000
										CHANNELS 3 Xrotation Yrotation Zrotation
										JOINT RightHandRing3
										{
											OFFSET -5.779297 0.000000 0.000000
											CHANNELS 3 Xrotation Yrotation Zrotation
											JOINT RightHandRing4
											{
												OFFSET -4.965698 0.000000 0.000000
												CHANNELS 3 Xrotation Yrotation Zrotation
												End Site
												{
													OFFSET 0.000000 4.965668 0.016226
												}
											}
										}
									}
								}
								JOINT RightHandPinky1
								{
									OFFSET -20.037003 -1.530334 -10.950259
									CHANNELS 3 Xrotation Yrotation Zrotation
									JOINT RightHandPinky2
									{
										OFFSET -5.254700 0.000000 0.000000
										CHANNELS 3 Xrotation Yrotation Zrotation
										JOINT RightHandPinky3
										{
											OFFSET -4.810204 0.000000 0.000000
											CHANNELS 3 Xrotation Yrotation Zrotation
											JOINT RightHandPinky4
											{
												OFFSET -3.647202 0.000000 0.000000
												CHANNELS 3 Xrotation Yrotation Zrotation
												End Site
												{
													OFFSET 0.000000 3.647186 0.011917
												}
											}
										}
									}
								}
							}
						}
					}
				}
			}
		}
	}
	JOINT LeftUpLeg
	{
		OFFSET 15.427100 -6.655098 0.678600
		CHANNELS 3 Xrotation Yrotation Zrotation
		JOINT LeftLeg
		{
			OFFSET 4.081073 -39.591068 13.024000
			CHANNELS 3 Xrotation Yrotation Zrotation
			JOINT LeftFoot
			{
				OFFSET -4.081074 -37.707932 -15.979700
				CHANNELS 3 Xrotation Yrotation Zrotation
				JOINT LeftToeBase
				{
					OFFSET 5.346399 -15.068900 20.645000
					CHANNELS 3 Xrotation Yrotation Zrotation
					JOINT LeftToe_End
					{
						OFFSET 2.754700 0.931300 11.300900
						CHANNELS 3 Xrotation Yrotation Zrotation
						End Site
						{
							OFFSET 0.000000 11.669021 0.000000
						}
					}
				}
			}
		}
	}
	JOINT RightUpLeg
	{
		OFFSET -15.569500 -6.655098 0.678600
		CHANNELS 3 Xrotation Yrotation Zrotation
		JOINT RightLeg
		{
			OFFSET -4.081825 -39.591045 13.023800
			CHANNELS 3 Xrotation Yrotation Zrotation
			JOINT RightFoot
			{
				OFFSET 4.081824 -37.707954 -15.979600
				CHANNELS 3 Xrotation Yrotation Zrotation
				JOINT RightToeBase
				{
					OFFSET -5.346400 -15.068900 20.645000
					CHANNELS 3 Xrotation Yrotation Zrotation
					JOINT RightToe_End
					{
						OFFSET -2.754700 0.931300 11.300900
						CHANNELS 3 Xrotation Yrotation Zrotation
						End Site
						{
							OFFSET 0.000000 11.669021 0.000000
						}
					}
				}
			}
		}
	}
}
MOTION
Frames: 6
Frame Time: 0.033333
3.585618 87.186462 -0.303468 -9.929685 -74.804464 -10.808929 3.098409 0.093390 0.334922 4.358856 0.305611 0.492383 4.357371 0.295862 0.501632 6.012003 6.090443 2.909046 15.913535 29.216424 -16.338842 -0.000001 -0.000001 -0.000000 0.603866 -5.244188 -8.701822 -17.156400 -1.639020 -46.310571 -0.000137 -103.977090 -0.000135 18.067070 -7.067635 13.289447 12.207365 2.040574 -18.888453 -4.526217 41.241338 17.435405 10.622610 57.868600 5.895970 0.000002 -0.000000 -0.000001 5.690599 6.777913 -80.012989 8.242280 6.745879 -101.434934 5.424617 6.725992 -77.750980 -0.000000 0.000002 -0.000004 5.049765 6.634149 -74.529385 7.596594 6.844080 -95.981807 4.791934 6.557813 -72.285012 0.000001 0.000001 0.000001 5.210024 6.676141 -75.912143 7.757424 6.825449 -97.333119 4.948519 6.605457 -73.651166 0.000001 -0.000000 0.000001 9.535563 7.546688 -78.634055 8.075976 2.690452 -100.002992 5.264950 6.689576 -76.384130 0.000001 0.000004 0.000003 1.923793 25.509788 3.372918 -6.493442 20.147212 37.595530 -0.000046 115.567183 0.000047 34.089850 0.123506 -22.688591 19.362280 8.185411 5.946367 12.293021 -37.397601 -3.358314 57.661714 -51.062197 35.696580 -0.000001 0.000000 -0.000001 6.711826 -6.944227 88.045462 6.965639 -6.948211 90.144092 4.867507 -6.630840 72.534485 -0.000000 -0.000000 0.000002 6.711826 -6.944226 88.045462 6.827946 -6.947202 89.005500 4.736628 -6.588499 71.397470 -0.000000 0.000000 -0.000001 7.221351 -6.942881 92.258316 7.337363 -6.937393 93.218340 5.224876 -6.732129 75.605345 -0.000000 0.000000 -0.000000 7.262636 -6.941150 92.599880 7.378625 -6.934967 93.559938 5.264899 -6.742189 75.946642 0.000001 -0.000000 -0.000001 -12.639408 16.708763 19.983465 33.007552 -4.851927 -0.642598 -18.824493 2.340006 -12.863585 -3.224369 -0.000008 -0.000008 -0.000000 -0.000000 -0.000000 -20.886985 -4.226504 -19.238370 27.111352 9.686897 0.739993 -6.669280 4.674240 12.426954 -1.262794 0.000050 -0.000007 0.000000 0.000000 0.000000 
3.154929 86.621307 -0.071095 -10.377431 -75.804212 -11.232095 2.691400 0.167487 0.258765 4.140270 0.472559 0.493327 4.139229 0.462062 0.501919 6.406985 6.258521 2.778988 16.312486 29.495824 -16.488191 0.000003 -0.000004 0.000001 0.602417 -5.231351 -8.753078 -16.895330 -1.771174 -46.243594 0.000113 -103.949783 0.000123 17.733565 -7.278162 13.308087 12.207372 2.040574 -18.888448 -4.526222 41.241331 17.435405 10.622620 57.868593 5.895973 0.000000 0.000000 -0.000000 5.690603 6.777914 -80.012989 8.242280 6.745874 -101.434934 5.424620 6.725992 -77.750973 0.000001 0.000000 -0.000003 5.049769 6.634152 -74.529385 7.596598 6.844082 -95.981814 4.791939 6.557812 -72.285019 0.000001 -0.000000 0.000001 5.210026 6.676141 -75.912143 7.757421 6.825446 -97.333112 4.948516 6.605457 -73.651159 0.000001 -0.000000 -0.000001 9.535561 7.546688 -78.634049 8.075972 2.690452 -100.003006 5.264950 6.689579 -76.384130 0.000002 0.000000 -0.000004 2.158791 25.999305 3.644693 -5.796220 20.223415 37.521105 0.000058 115.810338 -0.000058 33.991502 0.288579 -22.547518 19.362277 8.185414 5.946373 12.293023 -37.397605 -3.358309 57.661714 -51.062201 35.696580 0.000001 0.000000 0.000003 6.711828 -6.944226 88.045462 6.965642 -6.948212 90.144092 4.867507 -6.630839 72.534478 -0.000001 0.000000 0.000004 6.711828 -6.944225 88.045462 6.827947 -6.947204 89.005493 4.736628 -6.588499 71.397470 0.000000 0.000001 0.000003 7.221351 -6.942880 92.258316 7.337361 -6.937394 93.218340 5.224876 -6.732126 75.605345 0.000001 0.000000 -0.000001 7.262637 -6.941148 92.599880 7.378628 -6.934966 93.559931 5.264899 -6.742190 75.946642 -0.000000 0.000000 0.000000 -12.640732 16.653852 20.109603 34.468601 -4.446777 -0.539659 -19.488271 2.241733 -12.698902 -4.087295 -0.000023 0.000001 -0.000000 -0.000001 0.000000 -21.852319 -4.028823 -19.451023 28.526555 9.533787 0.695248 -7.338581 5.582585 12.347839 -1.233304 -0.000047 0.000005 0.000000 -0.000001 -0.000000 
3.024186 85.840515 0.182004 -10.239595 -76.467075 -10.904073 2.473981 0.295474 0.197404 4.004878 0.740606 0.557813 4.005486 0.727489 0.567354 6.854732 6.291242 2.697094 16.458263 29.591873 -16.973935 -0.000001 0.000002 -0.000000 0.605785 -5.184519 -8.526263 -16.167247 -1.987750 -46.088822 -0.000010 -104.122566 0.000000 17.591429 -7.335294 13.417028 12.207367 2.040574 -18.888448 -4.526208 41.241341 17.435402 10.622613 57.868600 5.895975 -0.000002 0.000001 -0.000000 5.690601 6.777913 -80.012996 8.242280 6.745874 -101.434934 5.424617 6.725993 -77.750973 0.000001 0.000002 -0.000001 5.049772 6.634148 -74.529385 7.596594 6.844081 -95.981807 4.791936 6.557813 -72.285019 -0.000001 -0.000001 0.000001 5.210026 6.676142 -75.912143 7.757422 6.825449 -97.333112 4.948517 6.605455 -73.651159 0.000002 0.000001 -0.000002 9.535564 7.546688 -78.634049 8.075975 2.690451 -100.002999 5.264951 6.689577 -76.384130 -0.000001 0.000001 0.000003 2.365359 26.213156 4.002285 -5.782026 21.045133 37.514988 -0.000042 115.461534 0.000055 33.044496 0.750116 -22.699709 19.362278 8.185413 5.946375 12.293024 -37.397598 -3.358311 57.661714 -51.062197 35.696584 -0.000002 0.000002 -0.000000 6.711825 -6.944228 88.045469 6.965642 -6.948213 90.144092 4.867506 -6.630839 72.534478 -0.000000 0.000000 -0.000000 6.711825 -6.944227 88.045462 6.827948 -6.947204 89.005493 4.736627 -6.588499 71.397477 0.000000 0.000000 0.000001 7.221350 -6.942882 92.258323 7.337361 -6.937394 93.218340 5.224875 -6.732127 75.605345 0.000000 -0.000000 -0.000000 7.262634 -6.941152 92.599887 7.378626 -6.934968 93.559931 5.264900 -6.742189 75.946642 0.000000 -0.000000 -0.000001 -13.124266 16.478419 20.109899 36.332413 -3.870456 -0.505329 -20.349837 2.013999 -12.715247 -4.660299 0.000012 -0.000006 -0.000000 0.000001 0.000000 -23.198560 -3.600294 -20.043416 30.315115 9.434691 0.673324 -8.062150 6.365578 12.455191 -1.205542 0.000039 -0.000000 0.000000 0.000000 0.000000 
3.061345 84.853584 0.456483 -9.812758 -77.247083 -10.130096 2.367916 0.511584 0.129008 3.884583 1.193341 0.646714 3.887455 1.179343 0.659611 7.268466 6.217179 2.565283 16.920378 29.309998 -17.752046 0.000003 0.000002 -0.000001 0.611412 -5.314200 -8.277126 -15.070700 -2.245880 -45.646858 -0.000010 -104.346152 -0.000003 17.507834 -7.336755 13.728894 12.207368 2.040575 -18.888448 -4.526215 41.241341 17.435403 10.622612 57.868600 5.895973 0.000000 0.000001 -0.000000 5.690607 6.777913 -80.012989 8.242278 6.745875 -101.434934 5.424622 6.725992 -77.750973 -0.000000 0.000000 -0.000000 5.049772 6.634151 -74.529385 7.596597 6.844080 -95.981814 4.791933 6.557814 -72.285019 -0.000001 0.000001 -0.000000 5.210029 6.676142 -75.912143 7.757424 6.825448 -97.333119 4.948520 6.605456 -73.651166 0.000001 0.000000 0.000001 9.535570 7.546685 -78.634055 8.075975 2.690451 -100.003006 5.264954 6.689578 -76.384123 -0.000001 0.000001 0.000002 2.533468 26.218880 4.317313 -6.379236 22.665469 38.136310 -0.000014 114.465009 0.000001 30.603827 1.512532 -23.189860 19.362278 8.185411 5.946367 12.293018 -37.397598 -3.358311 57.661727 -51.062197 35.696580 0.000001 -0.000001 0.000002 6.711825 -6.944225 88.045462 6.965644 -6.948213 90.144092 4.867506 -6.630839 72.534478 0.000000 0.000000 0.000001 6.711824 -6.944224 88.045462 6.827948 -6.947204 89.005493 4.736628 -6.588500 71.397477 -0.000001 0.000000 0.000002 7.221350 -6.942882 92.258309 7.337364 -6.937393 93.218347 5.224876 -6.732129 75.605352 0.000000 0.000000 0.000000 7.262634 -6.941148 92.599880 7.378625 -6.934967 93.559931 5.264900 -6.742191 75.946642 0.000001 -0.000000 0.000001 -13.733513 16.327415 19.974289 38.419520 -3.226993 -0.533259 -21.559123 1.886319 -12.914477 -4.932890 0.000012 0.000004 0.000000 0.000000 0.000000 -25.180703 -2.940473 -21.030113 32.449829 9.448428 0.727310 -8.335191 7.479622 13.076780 -1.297131 -0.000159 0.132288 0.000000 0.000001 -0.000000 
3.143096 83.703873 0.754812 -9.310446 -78.460077 -9.093681 2.278649 0.794391 -0.057021 3.760544 1.795803 0.648386 3.767345 1.780726 0.665727 7.623845 6.135576 2.318261 17.678001 28.855336 -18.824244 -0.000001 -0.000001 -0.000001 0.618926 -5.511099 -7.987458 -14.011523 -2.576132 -44.935278 0.000000 -104.577593 0.000006 17.328817 -7.472377 13.942033 12.207372 2.040576 -18.888449 -4.526218 41.241331 17.435403 10.622615 57.868600 5.895973 0.000003 -0.000000 0.000000 5.690606 6.777914 -80.012996 8.242279 6.745879 -101.434934 5.424618 6.725992 -77.750973 -0.000002 0.000001 -0.000001 5.049771 6.634152 -74.529385 7.596596 6.844080 -95.981814 4.791934 6.557812 -72.285012 -0.000001 0.000001 -0.000001 5.210026 6.676142 -75.912143 7.757424 6.825446 -97.333112 4.948521 6.605456 -73.651166 0.000001 0.000001 -0.000002 9.535566 7.546688 -78.634049 8.075973 2.690450 -100.002999 5.264957 6.689579 -76.384123 -0.000001 -0.000000 0.000003 2.757790 26.312030 4.639018 -7.660730 24.918241 39.485385 0.000095 112.844240 -0.000094 27.144902 2.281272 -23.691988 19.362275 8.185410 5.946367 12.293022 -37.397601 -3.358311 57.661721 -51.062197 35.696580 0.000001 -0.000001 0.000003 6.711825 -6.944226 88.045455 6.965643 -6.948212 90.144092 4.867505 -6.630839 72.534478 0.000001 -0.000000 -0.000001 6.711825 -6.944224 88.045455 6.827947 -6.947204 89.005500 4.736628 -6.588500 71.397470 -0.000000 -0.000000 -0.000003 7.221351 -6.942880 92.258309 7.337365 -6.937393 93.218340 5.224876 -6.732128 75.605345 0.000000 -0.000001 -0.000003 7.262634 -6.941149 92.599880 7.378627 -6.934968 93.559931 5.264901 -6.742189 75.946642 0.000000 0.000000 -0.000002 -14.290865 16.304795 19.609459 40.677673 -2.517806 -0.562241 -22.917156 1.863061 -13.004470 -5.293268 -0.000037 -0.000006 -0.000000 -0.000001 0.000000 -27.866523 -1.931583 -22.274338 34.966880 9.453663 0.810092 -8.117039 9.213953 13.954289 -1.769072 -0.009656 1.065934 0.000000 0.000002 0.000000 
3.274082 82.440315 0.980945 -6.853737 -79.696109 -6.108713 2.078948 1.099586 -0.370006 3.546653 2.482076 0.695877 3.562021 2.463636 0.713552 7.874826 6.092996 1.898454 18.533857 28.272574 -19.761861 -0.000002 0.000000 -0.000000 0.631147 -5.751816 -7.556430 -13.463756 -3.250437 -44.002343 -0.000137 -104.842878 -0.000112 17.330642 -7.514756 13.920958 12.207362 2.040575 -18.888442 -4.526215 41.241334 17.435407 10.622617 57.868607 5.895976 0.000000 -0.000000 0.000000 5.690599 6.777912 -80.012989 8.242282 6.745880 -101.434934 5.424617 6.725992 -77.750973 0.000001 0.000000 -0.000005 5.049766 6.634149 -74.529385 7.596595 6.844082 -95.981814 4.791935 6.557811 -72.285012 -0.000001 0.000002 -0.000002 5.210023 6.676140 -75.912143 7.757427 6.825448 -97.333119 4.948520 6.605458 -73.651166 0.000001 -0.000002 -0.000004 9.535564 7.546685 -78.634049 8.075973 2.690452 -100.002999 5.264952 6.689580 -76.384123 0.000001 -0.000001 -0.000001 3.077304 26.669083 5.160119 -8.842589 26.708309 41.059136 -0.000040 111.360511 0.000051 24.283711 2.425906 -23.747968 19.362275 8.185411 5.946370 12.293021 -37.397605 -3.358312 57.661714 -51.062197 35.696577 -0.000001 -0.000000 -0.000002 6.711825 -6.944227 88.045462 6.965642 -6.948213 90.144085 4.867505 -6.630839 72.534485 0.000001 -0.000000 -0.000002 6.711825 -6.944226 88.045462 6.827947 -6.947204 89.005500 4.736629 -6.588498 71.397477 0.000000 0.000001 0.000000 7.221352 -6.942881 92.258309 7.337363 -6.937395 93.218347 5.224875 -6.732129 75.605345 -0.000000 -0.000000 0.000001 7.262634 -6.941151 92.599880 7.378626 -6.934968 93.559931 5.264901 -6.742191 75.946642 0.000000 -0.000000 -0.000001 -15.174563 16.284435 19.305414 42.880180 -2.062879 -0.673331 -24.576288 2.041926 -13.254604 -5.348456 0.000029 0.000002 -0.000000 -0.000000 0.000000 -31.099351 -0.475949 -23.555656 37.484597 9.399540 0.917515 -7.017525 11.043072 15.773460 -3.331366 -0.045151 1.267180 0.000000 0.000001 0.000000 
